<svg height="512pt" viewBox="0 0 512 512" width="512pt" xmlns="http://www.w3.org/2000/svg"><path d="m512 203.035156v300.136719c0 4.875-3.953125 8.828125-8.828125 8.828125h-353.101563v-141.242188l58.527344-91.71875 44.179688-86.878906zm0 0" fill="#cb8252"/><path d="m414.898438 273.65625c-34.128907 0-61.796876 27.664062-61.796876 61.792969v105.929687c0 4.875 3.953126 8.828125 8.828126 8.828125h105.933593c4.875 0 8.828125-3.953125 8.828125-8.828125v-105.929687c0-34.128907-27.667968-61.792969-61.792968-61.792969zm0 0" fill="#804537"/><path d="m472.011719 91.1875c-2.464844-7.050781-9.125-11.765625-16.597657-11.738281h-357.761718v102.621093h70.070312v-5.519531h37.34375l-2.03125 26.484375h308.964844zm0 0" fill="#df4d60"/><g fill="#802d40"><path d="m257.148438 203.035156h-54.113282l2.03125-26.484375 6.796875-97.101562h44.136719zm0 0"/><path d="m361.929688 203.035156h-52.964844l-8.828125-123.585937h44.140625zm0 0"/><path d="m470.863281 203.035156h-53.9375l-28.511719-123.585937h41.222657zm0 0"/><path d="m97.652344 79.449219h70.070312v102.621093h-70.070312zm0 0"/></g><path d="m211.863281 79.449219-6.796875 99.308593h-51.203125l13.859375-99.308593zm0 0" fill="#df4d60"/><path d="m441.378906 17.65625v66.207031h-335.449218l-35.308594-83.863281h353.101562c9.738282.0273438 17.628906 7.917969 17.65625 17.65625zm0 0" fill="#cbb292"/><path d="m308.964844 44.136719h-114.757813c-4.875 0-8.828125-3.949219-8.828125-8.828125 0-4.875 3.953125-8.824219 8.828125-8.824219h114.757813c4.875 0 8.828125 3.949219 8.828125 8.824219 0 4.878906-3.953125 8.828125-8.828125 8.828125zm0 0" fill="#fdd7ad"/><path d="m167.722656 44.136719h-17.652344c-4.875 0-8.828124-3.949219-8.828124-8.828125 0-4.875 3.953124-8.824219 8.828124-8.824219h17.652344c4.875 0 8.828125 3.949219 8.828125 8.824219 0 4.878906-3.953125 8.828125-8.828125 8.828125zm0 0" fill="#fdd7ad"/><path d="m44.136719 35.308594h61.792969v77.332031h-61.792969zm0 0" fill="#cc4b4c"/><path d="m149.980469 176.550781c-1.105469-18.34375-8.894531-35.648437-21.890625-48.640625-22.058594-22.105468-55.523438-28.191406-83.953125-15.269531-26.867188 12.113281-44.136719 38.851563-44.136719 68.324219v304.550781c0 14.628906 11.855469 26.484375 26.484375 26.484375h123.585937zm0 0" fill="#4c8056"/><path d="m35.308594 220.691406h-35.308594v176.550782h132.414062v-44.140626zm0 0" fill="#71c285"/><path d="m203.035156 512h114.757813v-132.414062c-1.289063-30.4375-26.9375-54.109376-57.378907-52.964844-8.074218-.019532-16.074218 1.570312-23.527343 4.679687h-.09375l-25.25 20.742188c-.023438 0-.046875.007812-.066407.023437-.019531.015625-.03125.039063-.03125.066406-5.480468 8.105469-8.410156 17.667969-8.410156 27.453126zm0 0" fill="#804537"/><path d="m167.722656 364.933594v94.101562l59.976563 24.355469c6.191406 1.238281 10.644531 6.671875 10.644531 12.984375v2.382812c0 7.3125-5.925781 13.242188-13.242188 13.242188h-150.066406c-7.3125 0-13.242187-5.929688-13.242187-13.242188v-2.382812c0-6.3125 4.457031-11.746094 10.644531-12.984375l59.976562-24.355469v-94.101562zm0 0" fill="#802f34"/><path d="m105.929688 17.65625v22.066406h-61.792969v-22.066406c.03125-9.738281 7.917969-17.6289062 17.65625-17.65625h26.484375c9.738281.0273438 17.625 7.917969 17.652344 17.65625zm0 0" fill="#802f34"/><path d="m353.101562 335.449219h123.589844v105.929687c0 4.875-3.953125 8.828125-8.828125 8.828125h-105.933593c-4.875 0-8.828126-3.953125-8.828126-8.828125zm0 0" fill="#90bae1"/><path d="m247.171875 423.722656c0 4.875-3.953125 8.828125-8.828125 8.828125s-8.828125-3.953125-8.828125-8.828125 3.953125-8.824218 8.828125-8.824218 8.828125 3.949218 8.828125 8.824218zm0 0" fill="#cbb292"/><path d="m388.414062 397.242188c-3.570312 0-6.789062-2.152344-8.152343-5.449219-1.367188-3.300781-.613281-7.09375 1.910156-9.621094l17.65625-17.65625c3.464844-3.34375 8.96875-3.296875 12.375.109375s3.453125 8.910156.105469 12.375l-17.652344 17.65625c-1.65625 1.652344-3.902344 2.585938-6.242188 2.585938zm0 0" fill="#b0d3f0"/><path d="m406.070312 423.722656c-3.570312 0-6.789062-2.148437-8.15625-5.449218-1.363281-3.296876-.609374-7.09375 1.914063-9.617188l35.308594-35.3125c3.464843-3.34375 8.972656-3.296875 12.375.109375 3.40625 3.40625 3.453125 8.910156.109375 12.375l-35.3125 35.308594c-1.652344 1.65625-3.898438 2.585937-6.238282 2.585937zm0 0" fill="#b0d3f0"/><path d="m250.261719 307.375c-8.507813 16.609375-20.742188 31.023438-35.75 42.109375-11 8.074219-23.386719 14.058594-36.546875 17.65625h-.089844c-3.34375.910156-6.730469 1.648437-10.152344 2.207031-11.691406 1.882813-23.613281 1.882813-35.308594 0-45.105468-8.554687-81.140624-42.519531-92.335937-87.042968 15.890625 12.246093 35.5625 18.554687 55.613281 17.832031 45.902344 0 36.722656-26.480469 82.539063-26.480469 3.089843 0 6.179687.175781 9.089843.441406 14.015626 1.539063 27.5 6.214844 39.460938 13.683594 8.742188 5.351562 16.652344 11.953125 23.480469 19.59375zm0 0" fill="#d75e72"/><path d="m264.828125 247.171875c0 2.824219-.089844 5.5625-.265625 8.296875-1.011719 18.125-5.886719 35.824219-14.300781 51.90625-6.828125-7.640625-14.738281-14.242188-23.480469-19.59375-11.960938-7.46875-25.445312-12.144531-39.460938-13.683594-2.910156-.265625-6-.441406-9.089843-.441406-45.816407 0-36.636719 26.480469-82.539063 26.480469-20.050781.722656-39.722656-5.585938-55.613281-17.832031v-.058594c-7.199219-26.078125-6.179687-53.734375 2.914063-79.210938 2.6875-7.75 6.160156-15.207031 10.363281-22.253906 1.605469-2.632812 4.46875-4.238281 7.554687-4.230469h178.316406c3.085938-.019531 5.957032 1.574219 7.574219 4.203125 4.195313 7.054688 7.664063 14.523438 10.347657 22.28125 2.238281 6.054688 3.980468 12.285156 5.207031 18.625 1.636719 8.40625 2.460937 16.949219 2.472656 25.511719zm0 0" fill="#b0d3f0"/><path d="m74.550781 264.828125c-3.347656 0-6.40625-1.890625-7.902343-4.882813-6.328126-13.703124-6.328126-29.496093 0-43.203124 2.230468-4.246094 7.445312-5.9375 11.742187-3.804688s6.105469 7.308594 4.066406 11.652344c-3.851562 8.75-3.851562 18.714844 0 27.464844 1.371094 2.738281 1.222657 5.988281-.390625 8.59375-1.609375 2.601562-4.457031 4.183593-7.515625 4.179687zm0 0" fill="#e6e7e8"/></svg>