<?xml version="1.0" encoding="UTF-8" standalone="no"?>
<!DOCTYPE svg PUBLIC "-//W3C//DTD SVG 1.1//EN" "http://www.w3.org/Graphics/SVG/1.1/DTD/svg11.dtd">
<svg width="100%" height="100%" viewBox="0 0 1667 1667" version="1.1" xmlns="http://www.w3.org/2000/svg" xmlns:xlink="http://www.w3.org/1999/xlink" xml:space="preserve" xmlns:serif="http://www.serif.com/" style="fill-rule:evenodd;clip-rule:evenodd;stroke-linejoin:round;stroke-miterlimit:2;">
    <g transform="matrix(4.16667,0,0,4.16667,-714.583,389.583)">
        <g transform="matrix(0.605351,0,0,0.605351,371.5,164.759)">
            <g transform="matrix(1,0,0,1,-234.147,-234.147)">
                <rect x="21.242" y="0" width="298.028" height="443.941" style="fill:rgb(100,121,138);"/>
                <g>
                    <rect x="54.703" y="34.341" width="38.256" height="63.282" style="fill:rgb(68,196,161);"/>
                    <rect x="118.984" y="34.341" width="38.256" height="63.282" style="fill:rgb(68,196,161);"/>
                    <rect x="183.271" y="34.341" width="38.256" height="63.282" style="fill:rgb(68,196,161);"/>
                    <rect x="247.571" y="34.341" width="38.256" height="63.282" style="fill:rgb(68,196,161);"/>
                    <rect x="54.703" y="134.306" width="38.256" height="63.282" style="fill:rgb(68,196,161);"/>
                    <rect x="118.984" y="134.306" width="38.256" height="63.282" style="fill:rgb(68,196,161);"/>
                </g>
                <g>
                    <rect x="183.271" y="134.306" width="38.256" height="63.282" style="fill:rgb(39,162,219);"/>
                    <rect x="247.571" y="134.306" width="38.256" height="63.282" style="fill:rgb(39,162,219);"/>
                </g>
                <g>
                    <path d="M221.525,297.515L183.269,297.515L221.525,234.231L221.525,297.515Z" style="fill:rgb(45,147,186);fill-rule:nonzero;"/>
                    <path d="M285.808,297.515L247.553,297.515L285.808,234.231L285.808,297.515Z" style="fill:rgb(45,147,186);fill-rule:nonzero;"/>
                </g>
                <g>
                    <rect x="54.703" y="334.174" width="38.256" height="63.282" style="fill:rgb(68,196,161);"/>
                    <rect x="118.984" y="334.174" width="38.256" height="63.282" style="fill:rgb(68,196,161);"/>
                </g>
                <g>
                    <rect x="183.271" y="334.174" width="38.256" height="63.282" style="fill:rgb(39,162,219);"/>
                    <rect x="247.571" y="334.174" width="38.256" height="63.282" style="fill:rgb(39,162,219);"/>
                </g>
                <g>
                    <path d="M92.958,97.628L54.703,97.628L92.958,34.344L92.958,97.628Z" style="fill:rgb(62,166,155);fill-rule:nonzero;"/>
                    <path d="M157.242,97.628L118.986,97.628L157.242,34.344L157.242,97.628Z" style="fill:rgb(62,166,155);fill-rule:nonzero;"/>
                    <path d="M221.525,97.628L183.269,97.628L221.525,34.344L221.525,97.628Z" style="fill:rgb(62,166,155);fill-rule:nonzero;"/>
                    <path d="M285.808,97.628L247.553,97.628L285.808,34.344L285.808,97.628Z" style="fill:rgb(62,166,155);fill-rule:nonzero;"/>
                    <path d="M92.958,197.571L54.703,197.571L92.958,134.288L92.958,197.571Z" style="fill:rgb(62,166,155);fill-rule:nonzero;"/>
                    <path d="M157.242,197.571L118.986,197.571L157.242,134.288L157.242,197.571Z" style="fill:rgb(62,166,155);fill-rule:nonzero;"/>
                </g>
                <g>
                    <path d="M221.525,197.571L183.269,197.571L221.525,134.288L221.525,197.571Z" style="fill:rgb(45,147,186);fill-rule:nonzero;"/>
                    <path d="M285.808,197.571L247.553,197.571L285.808,134.288L285.808,197.571Z" style="fill:rgb(45,147,186);fill-rule:nonzero;"/>
                </g>
                <g>
                    <rect x="54.703" y="234.209" width="38.256" height="63.282" style="fill:rgb(68,196,161);"/>
                    <rect x="118.984" y="234.209" width="38.256" height="63.282" style="fill:rgb(68,196,161);"/>
                </g>
                <g>
                    <rect x="183.271" y="234.209" width="38.256" height="63.282" style="fill:rgb(39,162,219);"/>
                    <rect x="247.571" y="234.209" width="38.256" height="63.282" style="fill:rgb(39,162,219);"/>
                </g>
                <g>
                    <path d="M92.958,397.458L54.703,397.458L92.958,334.175L92.958,397.458Z" style="fill:rgb(62,166,155);fill-rule:nonzero;"/>
                    <path d="M157.242,397.458L118.986,397.458L157.242,334.175L157.242,397.458Z" style="fill:rgb(62,166,155);fill-rule:nonzero;"/>
                </g>
                <g>
                    <path d="M221.525,397.458L183.269,397.458L221.525,334.175L221.525,397.458Z" style="fill:rgb(45,147,186);fill-rule:nonzero;"/>
                    <path d="M285.808,397.458L247.553,397.458L285.808,334.175L285.808,397.458Z" style="fill:rgb(45,147,186);fill-rule:nonzero;"/>
                </g>
                <rect x="183.271" y="133.638" width="255.563" height="310.328" style="fill:rgb(213,214,219);"/>
                <rect x="268.488" y="358.793" width="85.186" height="85.173" style="fill:rgb(100,121,138);"/>
                <rect x="257.792" y="344.457" width="106.521" height="14.342" style="fill:rgb(58,85,106);"/>
                <g>
                    <rect x="204.55" y="162.597" width="35.253" height="61.49" style="fill:rgb(39,162,219);"/>
                    <rect x="263.805" y="162.597" width="35.253" height="61.49" style="fill:rgb(39,162,219);"/>
                    <rect x="323.06" y="162.597" width="35.253" height="61.49" style="fill:rgb(39,162,219);"/>
                    <rect x="382.283" y="162.597" width="35.253" height="61.49" style="fill:rgb(39,162,219);"/>
                </g>
                <g>
                    <path d="M239.82,224.088L204.566,224.088L239.82,162.597L239.82,224.088Z" style="fill:rgb(45,147,186);fill-rule:nonzero;"/>
                    <path d="M299.059,224.088L263.805,224.088L299.059,162.597L299.059,224.088Z" style="fill:rgb(45,147,186);fill-rule:nonzero;"/>
                    <path d="M358.297,224.088L323.044,224.088L358.297,162.597L358.297,224.088Z" style="fill:rgb(45,147,186);fill-rule:nonzero;"/>
                    <path d="M417.536,224.088L382.283,224.088L417.536,162.597L417.536,224.088Z" style="fill:rgb(45,147,186);fill-rule:nonzero;"/>
                </g>
                <g>
                    <rect x="204.55" y="254.002" width="35.253" height="61.49" style="fill:rgb(39,162,219);"/>
                    <rect x="263.805" y="254.002" width="35.253" height="61.49" style="fill:rgb(39,162,219);"/>
                    <rect x="323.06" y="254.002" width="35.253" height="61.49" style="fill:rgb(39,162,219);"/>
                    <rect x="382.283" y="254.002" width="35.253" height="61.49" style="fill:rgb(39,162,219);"/>
                    <rect x="382.283" y="344.457" width="35.253" height="61.49" style="fill:rgb(39,162,219);"/>
                    <rect x="204.55" y="344.457" width="35.253" height="61.49" style="fill:rgb(39,162,219);"/>
                </g>
                <g>
                    <path d="M239.82,315.497L204.566,315.497L239.82,254.006L239.82,315.497Z" style="fill:rgb(45,147,186);fill-rule:nonzero;"/>
                    <path d="M299.059,315.497L263.805,315.497L299.059,254.006L299.059,315.497Z" style="fill:rgb(45,147,186);fill-rule:nonzero;"/>
                    <path d="M358.297,315.497L323.044,315.497L358.297,254.006L358.297,315.497Z" style="fill:rgb(45,147,186);fill-rule:nonzero;"/>
                    <path d="M417.536,315.497L382.283,315.497L417.536,254.006L417.536,315.497Z" style="fill:rgb(45,147,186);fill-rule:nonzero;"/>
                    <path d="M417.536,405.946L382.283,405.946L417.536,344.456L417.536,405.946Z" style="fill:rgb(45,147,186);fill-rule:nonzero;"/>
                    <path d="M239.82,405.946L204.566,405.946L239.82,344.456L239.82,405.946Z" style="fill:rgb(45,147,186);fill-rule:nonzero;"/>
                </g>
                <path d="M455.967,468.293L12.326,468.293C8.878,468.293 6.082,465.497 6.082,462.049L6.082,450.21C6.082,446.762 8.877,443.966 12.326,443.966L455.967,443.966C459.415,443.966 462.211,446.761 462.211,450.21L462.211,462.049C462.211,465.497 459.415,468.293 455.967,468.293Z" style="fill:rgb(58,85,106);fill-rule:nonzero;"/>
                <g>
                    <path d="M92.958,297.515L54.703,297.515L92.958,234.231L92.958,297.515Z" style="fill:rgb(62,166,155);fill-rule:nonzero;"/>
                    <path d="M157.242,297.515L118.986,297.515L157.242,234.231L157.242,297.515Z" style="fill:rgb(62,166,155);fill-rule:nonzero;"/>
                </g>
            </g>
        </g>
        <g transform="matrix(0.945115,0,0,0.926482,204.047,-75.6852)">
            <path d="M182.133,212.4L208.714,173.379L163.191,106.554L91.077,212.4L182.133,212.4Z" style="fill:rgb(255,204,78);fill-rule:nonzero;"/>
            <path d="M326.354,212.4L254.251,106.554L163.186,106.554L235.299,212.4L326.354,212.4Z" style="fill:rgb(88,89,91);fill-rule:nonzero;"/>
            <path d="M144.244,0.672L117.644,39.714L163.186,106.516L235.289,0.672L144.244,0.672Z" style="fill:rgb(88,89,91);fill-rule:nonzero;"/>
            <path d="M0,0.672L72.092,106.516L163.158,106.516L91.044,0.672L0,0.672Z" style="fill:rgb(255,204,78);fill-rule:nonzero;"/>
        </g>
    </g>
</svg>
